HIERARCHY
ROOT Hips
{
    OFFSET   0.000000   0.000000   0.000000
    CHANNELS 6 Xposition Yposition Zposition Zrotation Xrotation Yrotation
    JOINT Chest
    {
        OFFSET   0.000000   8.007230   0.000000
        CHANNELS 3 Zrotation Xrotation Yrotation
        JOINT Chest2
        {
            OFFSET   0.000000  22.077100   0.000000
            CHANNELS 3 Zrotation Xrotation Yrotation
            JOINT Neck
            {
                OFFSET   0.000000  23.255100   0.000000
                CHANNELS 3 Zrotation Xrotation Yrotation
                JOINT Head
                {
                    OFFSET   0.000000  14.370100   1.956600
                    CHANNELS 3 Zrotation Xrotation Yrotation
                    End Site
                    {
                        OFFSET   0.000000  19.566000   0.000000
                    }
                }
            }
            JOINT LeftCollar
            {
                OFFSET   3.911900  19.017000  -0.467063
                CHANNELS 3 Zrotation Xrotation Yrotation
                JOINT LeftShoulder
                {
                    OFFSET  10.383700   0.000000   0.000000
                    CHANNELS 3 Zrotation Xrotation Yrotation
                    JOINT LeftElbow
                    {
                        OFFSET  26.662100   0.001193   0.000980
                        CHANNELS 3 Zrotation Xrotation Yrotation
                        JOINT LeftWrist
                        {
                            OFFSET  28.869000  -0.000059  -0.000082
                            CHANNELS 3 Zrotation Xrotation Yrotation
                            JOINT LeftFinger0
                            {
                                OFFSET   2.044650  -2.323450   3.252850
                                CHANNELS 3 Zrotation Xrotation Yrotation
                                JOINT LeftFinger01
                                {
                                    OFFSET   3.088130   0.000000   0.000000
                                    CHANNELS 3 Zrotation Xrotation Yrotation
                                    JOINT LeftFinger02
                                    {
                                        OFFSET   2.639460   0.000000   0.000000
                                        CHANNELS 3 Zrotation Xrotation Yrotation
                                        End Site
                                        {
                                            OFFSET   2.582190   0.000000   0.000000
                                        }
                                    }
                                }
                            }
                            JOINT LeftFinger1
                            {
                                OFFSET   8.364480   0.000000   3.252850
                                CHANNELS 3 Zrotation Xrotation Yrotation
                                JOINT LeftFinger11
                                {
                                    OFFSET   4.646930   0.000000   0.000000
                                    CHANNELS 3 Zrotation Xrotation Yrotation
                                    JOINT LeftFinger12
                                    {
                                        OFFSET   2.323470   0.000000   0.000000
                                        CHANNELS 3 Zrotation Xrotation Yrotation
                                        End Site
                                        {
                                            OFFSET   2.273050   0.000000   0.000000
                                        }
                                    }
                                }
                            }
                            JOINT LeftFinger2
                            {
                                OFFSET   8.364490   0.000016   1.078090
                                CHANNELS 3 Zrotation Xrotation Yrotation
                                JOINT LeftFinger21
                                {
                                    OFFSET   5.111610   0.000000   0.000000
                                    CHANNELS 3 Zrotation Xrotation Yrotation
                                    JOINT LeftFinger22
                                    {
                                        OFFSET   2.788150   0.000016   0.000000
                                        CHANNELS 3 Zrotation Xrotation Yrotation
                                        End Site
                                        {
                                            OFFSET   2.727660   0.000000   0.000000
                                        }
                                    }
                                }
                            }
                            JOINT LeftFinger3
                            {
                                OFFSET   7.899780   0.000015  -1.078090
                                CHANNELS 3 Zrotation Xrotation Yrotation
                                JOINT LeftFinger31
                                {
                                    OFFSET   4.646930   0.000000   0.000000
                                    CHANNELS 3 Zrotation Xrotation Yrotation
                                    JOINT LeftFinger32
                                    {
                                        OFFSET   2.323470   0.000000   0.000000
                                        CHANNELS 3 Zrotation Xrotation Yrotation
                                        End Site
                                        {
                                            OFFSET   2.273050   0.000000   0.000000
                                        }
                                    }
                                }
                            }
                            JOINT LeftFinger4
                            {
                                OFFSET   7.435090   0.000000  -3.252850
                                CHANNELS 3 Zrotation Xrotation Yrotation
                                JOINT LeftFinger41
                                {
                                    OFFSET   3.717550   0.000000   0.000000
                                    CHANNELS 3 Zrotation Xrotation Yrotation
                                    JOINT LeftFinger42
                                    {
                                        OFFSET   1.858770   0.000000   0.000000
                                        CHANNELS 3 Zrotation Xrotation Yrotation
                                        End Site
                                        {
                                            OFFSET   1.818440   0.000000   0.000000
                                        }
                                    }
                                }
                            }
                        }
                    }
                }
            }
            JOINT RightCollar
            {
                OFFSET  -3.911910  19.017000  -0.467062
                CHANNELS 3 Zrotation Xrotation Yrotation
                JOINT RightShoulder
                {
                    OFFSET -10.383700   0.000014   0.000000
                    CHANNELS 3 Zrotation Xrotation Yrotation
                    JOINT RightElbow
                    {
                        OFFSET -26.662100   0.001225   0.001091
                        CHANNELS 3 Zrotation Xrotation Yrotation
                        JOINT RightWrist
                        {
                            OFFSET -28.869000  -0.000020  -0.000085
                            CHANNELS 3 Zrotation Xrotation Yrotation
                            JOINT RightFinger0
                            {
                                OFFSET  -2.044650  -2.323490   3.252850
                                CHANNELS 3 Zrotation Xrotation Yrotation
                                JOINT RightFinger01
                                {
                                    OFFSET  -3.088130   0.000000   0.000000
                                    CHANNELS 3 Zrotation Xrotation Yrotation
                                    JOINT RightFinger02
                                    {
                                        OFFSET  -2.639460   0.000000   0.000000
                                        CHANNELS 3 Zrotation Xrotation Yrotation
                                        End Site
                                        {
                                            OFFSET  -2.582190   0.000000   0.000000
                                        }
                                    }
                                }
                            }
                            JOINT RightFinger1
                            {
                                OFFSET  -8.364480   0.000000   3.252850
                                CHANNELS 3 Zrotation Xrotation Yrotation
                                JOINT RightFinger11
                                {
                                    OFFSET  -4.646930   0.000000   0.000000
                                    CHANNELS 3 Zrotation Xrotation Yrotation
                                    JOINT RightFinger12
                                    {
                                        OFFSET  -2.323470   0.000000   0.000000
                                        CHANNELS 3 Zrotation Xrotation Yrotation
                                        End Site
                                        {
                                            OFFSET  -2.273050   0.000000   0.000000
                                        }
                                    }
                                }
                            }
                            JOINT RightFinger2
                            {
                                OFFSET  -8.364480   0.000000   1.078090
                                CHANNELS 3 Zrotation Xrotation Yrotation
                                JOINT RightFinger21
                                {
                                    OFFSET  -5.111620   0.000000   0.000000
                                    CHANNELS 3 Zrotation Xrotation Yrotation
                                    JOINT RightFinger22
                                    {
                                        OFFSET  -2.788160   0.000000   0.000000
                                        CHANNELS 3 Zrotation Xrotation Yrotation
                                        End Site
                                        {
                                            OFFSET  -2.727660   0.000000   0.000000
                                        }
                                    }
                                }
                            }
                            JOINT RightFinger3
                            {
                                OFFSET  -7.899780   0.000000  -1.078090
                                CHANNELS 3 Zrotation Xrotation Yrotation
                                JOINT RightFinger31
                                {
                                    OFFSET  -4.646930   0.000000   0.000000
                                    CHANNELS 3 Zrotation Xrotation Yrotation
                                    JOINT RightFinger32
                                    {
                                        OFFSET  -2.323470   0.000000   0.000000
                                        CHANNELS 3 Zrotation Xrotation Yrotation
                                        End Site
                                        {
                                            OFFSET  -2.273050   0.000000   0.000000
                                        }
                                    }
                                }
                            }
                            JOINT RightFinger4
                            {
                                OFFSET  -7.435090   0.000000  -3.252850
                                CHANNELS 3 Zrotation Xrotation Yrotation
                                JOINT RightFinger41
                                {
                                    OFFSET  -3.717550   0.000000   0.000000
                                    CHANNELS 3 Zrotation Xrotation Yrotation
                                    JOINT RightFinger42
                                    {
                                        OFFSET  -1.858760   0.000000   0.000000
                                        CHANNELS 3 Zrotation Xrotation Yrotation
                                        End Site
                                        {
                                            OFFSET  -1.818440   0.000000   0.000000
                                        }
                                    }
                                }
                            }
                        }
                    }
                }
            }
        }
    }
    JOINT LeftHip
    {
        OFFSET   9.783030   0.000000   0.000000
        CHANNELS 3 Zrotation Xrotation Yrotation
        JOINT LeftKnee
        {
            OFFSET   0.000063 -41.789100   0.000608
            CHANNELS 3 Zrotation Xrotation Yrotation
            JOINT LeftAnkle
            {
                OFFSET   0.000048 -41.133200  -0.000184
                CHANNELS 3 Zrotation Xrotation Yrotation
                JOINT LeftToe
                {
                    OFFSET   0.000000  -6.358960  14.674500
                    CHANNELS 3 Zrotation Xrotation Yrotation
                    End Site
                    {
                        OFFSET   0.000000   0.000000   3.913200
                    }
                }
            }
        }
    }
    JOINT RightHip
    {
        OFFSET  -9.783030   0.000000   0.000000
        CHANNELS 3 Zrotation Xrotation Yrotation
        JOINT RightKnee
        {
            OFFSET   0.000071 -41.789100   0.001239
            CHANNELS 3 Zrotation Xrotation Yrotation
            JOINT RightAnkle
            {
                OFFSET   0.000037 -41.133200  -0.000166
                CHANNELS 3 Zrotation Xrotation Yrotation
                JOINT RightToe
                {
                    OFFSET   0.000000  -6.358960  14.674500
                    CHANNELS 3 Zrotation Xrotation Yrotation
                    End Site
                    {
                        OFFSET   0.000000   0.000000   3.913200
                    }
                }
            }
        }
    }
}
MOTION
Frames: 6
Frame Time:   0.016667
 -0.808598  89.943600  -0.541368  -2.298650 -10.451800  -9.490990   1.048680   7.229330  -1.947820   2.375330  14.417000  -4.079030   4.696740   2.872250  -0.235890   7.769050   5.707540   9.284420  -4.920740  -2.869620   4.443810 -66.665500  28.657600  -5.827920  -4.757030  -9.761430 -16.534200  14.791300  -7.443520   6.864360  54.322200  46.041000 -92.015200 -19.491400   0.000610   0.000307  -4.745670  -0.000809   0.005756 -30.962800   8.260480 -13.466600 -26.132600   0.014394   0.000000 -18.292800   0.004820  -0.005759 -28.676300  -0.198089   0.362163 -38.631800  -0.015636  -0.020230 -25.728800  -0.000462  -0.031665 -27.915500  -0.193228   0.364778 -31.443500   0.003939  -0.003695 -20.941300   0.005028  -0.003719 -31.410000  -0.257750   0.422125 -47.116500   0.001403   0.003412 -31.379600   0.005552   0.000772   6.924620  -1.066310  11.210200  51.256800  -6.786740  54.622000 -12.046700 -24.874400  68.508100 -14.560700 -41.001500  22.743200 -51.758300  39.601100  79.499600  11.685700   0.001140  -0.000146   0.842822  -0.005453   0.000871  10.366800   1.807560   9.690550   8.598470   0.003691  -0.022704   6.018900  -0.004424  -0.015513   8.315030  -0.116150  -0.914679   8.311890   0.000288  -0.042247   5.535710   0.000900  -0.027915  13.367800  -2.287940  -9.627820  13.551600  -0.009626  -0.031000   9.025390  -0.006035  -0.023924  26.179900  -7.283020 -14.453300  40.649500  -0.034342  -0.028953  27.072600  -0.029056  -0.002211   0.911878  11.661600   2.099920  -0.310470   3.092510  16.952500  -5.178650  -5.227770   6.005880   0.000000   0.000000   0.000000   2.585640   9.826210  -9.285320  -0.137809   2.863800  -3.475440 -10.419200   0.302781   5.406230  -0.000000   0.000000   0.000000
 -0.837356  89.940400  -0.534528  -2.235010 -10.408100  -9.278170   1.043360   7.194090  -1.916230   2.359350  14.347400  -4.013260   4.561250   2.769710  -0.220805   7.541480   5.510020   9.407610  -4.964660  -2.869770   4.394090 -66.677400  28.602900  -5.831790  -4.723930  -9.756900 -16.565800  14.807300  -7.495710   6.895190  54.309200  46.039100 -92.009400 -19.552500   0.000605   0.000287  -4.776230  -0.000812   0.005762 -30.978100   8.234460 -13.418400 -26.139600   0.011904   0.000000 -18.297700   0.004812  -0.005767 -28.676300  -0.222614   0.406984 -38.637700  -0.024002  -0.052881 -25.732800   0.007170  -0.044453 -27.917300  -0.217156   0.409920 -31.450300   0.003937  -0.003697 -20.945900   0.005033  -0.003717 -31.421000  -0.287207   0.470127 -47.133400   0.001403   0.003413 -31.390800   0.005551   0.000769   6.922630  -0.938327  11.189600  51.816800  -7.175230  54.730100 -12.566500 -25.044000  67.522700 -16.733800 -38.708200  22.592500 -51.749100  39.554700  79.441400  11.461700   0.000918  -0.000018   0.730830  -0.006453   0.000857   9.228100   1.535950   9.319160   7.643610   0.003696  -0.025156   5.350500  -0.004426  -0.017306   6.532500  -0.112929  -1.116630   6.531040   0.000196  -0.038607   4.349670   0.000766  -0.025539  11.845800  -2.108160 -10.010700  12.022100  -0.007757  -0.030241   8.006700  -0.005694  -0.021860  24.692200  -6.939570 -14.666700  38.369600  -0.033243  -0.026014  25.554200  -0.027423  -0.002192   0.908629  11.573600   2.094550  -0.294044   3.106620  16.831800  -5.200790  -5.198950   5.927390  -0.000000   0.000000   0.000000   2.575990   9.800840  -9.305020  -0.119952   2.842190  -3.539100 -10.423700   0.302626   5.286700   0.000000   0.000000   0.000000
 -0.865260  89.936900  -0.525647  -2.173090 -10.362700  -9.070580   1.036640   7.156810  -1.881550   2.339290  14.274000  -3.940980   4.416680   2.670510  -0.206050   7.299310   5.318750   9.518790  -5.005210  -2.869700   4.331300 -66.699200  28.522500  -5.828320  -4.691210  -9.738350 -16.578800  14.824500  -7.525630   6.929970  54.289200  46.038800 -92.008600 -19.612000   0.000600   0.000266  -4.805970  -0.000817   0.005769 -30.995400   8.209850 -13.371100 -26.148700   0.008352   0.000000 -18.304100   0.004801  -0.005775 -28.676300  -0.245960   0.449638 -38.651800  -0.028861  -0.081041 -25.742100   0.014289  -0.054152 -27.918700  -0.239940   0.452876 -31.466300   0.003936  -0.003699 -20.956600   0.005036  -0.003714 -31.433600  -0.314628   0.514722 -47.152700   0.001402   0.003415 -31.403700   0.005550   0.000767   6.921220  -0.797981  11.144100  52.432800  -7.610900  54.824200 -13.128300 -25.076300  66.458000 -18.701500 -36.173200  22.721300 -51.650200  39.379400  78.979600  11.294400   0.000651   0.000000   0.647184  -0.007436   0.000850   8.403970   1.330450   8.919190   6.952170   0.003700  -0.028040   4.866490  -0.004427  -0.019408   4.971790  -0.100858  -1.195660   4.970240   0.000076  -0.035615   3.310180   0.000618  -0.023605  10.448500  -1.926210 -10.352500  10.614200  -0.005160  -0.029482   7.069050  -0.004935  -0.019149  23.176900  -6.521910 -14.917400  36.020900  -0.029718  -0.020735  23.989900  -0.023625  -0.002156   0.904389  11.489500   2.087170  -0.277693   3.118830  16.719600  -5.223110  -5.168790   5.848500  -0.000000   0.000000   0.000000   2.563270   9.777640  -9.320540  -0.098223   2.818120  -3.603110 -10.427000   0.301185   5.168630   0.000000   0.000000  -0.000000
 -0.888542  89.932900  -0.515546  -2.107710 -10.313700  -8.870820   1.027340   7.119350  -1.844320   2.313780  14.200200  -3.863220   4.259360   2.572810  -0.191376   7.036530   5.130530   9.622200  -5.048730  -2.862800   4.250240 -66.736100  28.401500  -5.789930  -4.670110  -9.702150 -16.576600  14.833900  -7.515430   6.956590  54.280800  46.052000 -92.033500 -19.666400   0.000611   0.000282  -4.833200  -0.000821   0.005769 -31.015800   8.188030 -13.326700 -26.161900   0.005804  -0.000000 -18.313400   0.004797  -0.005771 -28.676300  -0.267288   0.488597 -38.677400  -0.023409  -0.087687 -25.759700   0.020006  -0.055184 -27.919200  -0.260777   0.492101 -31.495300   0.003938  -0.003696 -20.976100   0.005033  -0.003712 -31.452100  -0.335884   0.549081 -47.180700   0.001399   0.003417 -31.422300   0.005551   0.000770   6.922640  -0.648718  11.077400  52.988700  -8.110020  54.913200 -13.676500 -24.901400  65.376100 -21.210700 -33.866900  22.542600 -51.082500  38.626700  77.605800  11.167900   0.000368  -0.000000   0.583965  -0.008386   0.000911   7.424930   1.140230   8.642940   6.135580   0.003700  -0.028544   4.294900  -0.004428  -0.019769   3.658190  -0.069512  -1.187760   3.652970  -0.000080  -0.031012   2.432870   0.000446  -0.020611   9.210340  -1.723390 -10.585400   9.357950  -0.004264  -0.023655   6.232390  -0.003896  -0.014765  21.858200  -6.416050 -15.574600  34.079200  -0.022838  -0.015381  22.696800  -0.017941  -0.002093   0.893884  11.426800   2.072290  -0.260523   3.103360  16.624700  -5.247340  -5.135220   5.771040  -0.000000   0.000000   0.000000   2.540440   9.753040  -9.329640  -0.069996   2.790450  -3.680390 -10.429100   0.296531   5.066850  -0.000000   0.000000   0.000000
 -0.908551  89.929400  -0.503007  -2.041250 -10.262400  -8.679330   1.016670   7.080790  -1.812120   2.286880  14.124200  -3.795500   4.089850   2.477530  -0.176920   6.753820   4.946980   9.737640  -5.094970  -2.847460   4.175410 -66.791900  28.256900  -5.707370  -4.649430  -9.640050 -16.570800  14.836700  -7.482540   6.978580  54.303700  46.077500 -92.083100 -19.717500   0.000623   0.000297  -4.858770  -0.000823   0.005766 -31.033600   8.165880 -13.283200 -26.170400   0.004490   0.000000 -18.319300   0.004796  -0.005765 -28.676300  -0.288614   0.527556 -38.696800  -0.014804  -0.088637 -25.772000   0.022814  -0.055331 -27.919300  -0.281611   0.531327 -31.516700   0.003941  -0.003694 -20.990100   0.005031  -0.003711 -31.463600  -0.355828   0.581402 -47.198400   0.001396   0.003418 -31.434100   0.005552   0.000773   6.921370  -0.486674  11.009700  53.467600  -8.636730  54.981200 -14.182400 -24.624700  64.317700 -23.614800 -31.897400  22.423100 -50.379500  37.644300  76.007400  11.084200   0.000070  -0.000000   0.542101  -0.009296   0.001075   6.469620   0.969022   8.381770   5.340420   0.003700  -0.028616   3.738300  -0.004429  -0.019821   2.612120  -0.045304  -1.179860   2.603470  -0.000282  -0.024604   1.733910   0.000246  -0.016400   8.218560  -1.571080 -10.836200   8.354640  -0.003798  -0.015780   5.564170  -0.002695  -0.010050  20.839400  -6.380380 -16.315900  32.601900  -0.014932  -0.010224  21.712900  -0.011742  -0.001999   0.880043  11.369900   2.052500  -0.242536   3.076700  16.540800  -5.273000  -5.100250   5.696760  -0.000000   0.000000  -0.000000   2.512470   9.729640  -9.341700  -0.038355   2.758390  -3.766760 -10.431000   0.288181   4.985460   0.000000   0.000000  -0.000000
 -0.924717  89.927600  -0.486962  -1.973500 -10.209200  -8.497800   1.006090   7.040620  -1.795150   2.261690  14.044700  -3.758610   3.905770   2.385130  -0.162691   6.447380   4.769080   9.892940  -5.146870  -2.827040   4.135490 -66.850200  28.091500  -5.591320  -4.641380  -9.540640 -16.555500  14.827500  -7.421380   6.992920  54.357300  46.105700 -92.140900 -19.767600   0.000619   0.000292  -4.883810  -0.000815   0.005753 -31.041600   8.138860 -13.237100 -26.170200   0.004485  -0.000000 -18.319200   0.004797  -0.005764 -28.676200  -0.313062   0.572248 -38.698800  -0.007857  -0.068966 -25.771900   0.019941  -0.042055 -27.919100  -0.305472   0.576337 -31.518500   0.003942  -0.003696 -20.990900   0.005030  -0.003711 -31.457900  -0.379619   0.620402 -47.190200   0.001403   0.003417 -31.428700   0.005551   0.000774   6.911310  -0.305318  10.965800  53.935200  -9.184310  55.006300 -14.603900 -24.306200  63.335100 -25.439500 -30.732500  22.534000 -49.888800  36.806800  74.569800  11.043200  -0.000079   0.000024   0.521580  -0.010155   0.001200   5.343870   0.789419   8.097710   4.410050   0.003700  -0.017448   3.087030  -0.004428  -0.012137   1.878680  -0.043296  -1.461860   1.869110  -0.000540  -0.014660   1.244840   0.000009  -0.009780   7.631360  -1.527930 -11.281700   7.773730  -0.003257  -0.010787   5.177290  -0.001486  -0.006942  20.351000  -6.495450 -16.976900  31.964100  -0.008865  -0.008118  21.288100  -0.007461  -0.001935   0.863374  11.306900   2.026800  -0.225404   3.055820  16.467300  -5.300650  -5.064650   5.627930  -0.000000   0.000000   0.000000   2.480810   9.708800  -9.367900  -0.004820   2.719880  -3.863150 -10.434100   0.276311   4.937240   0.000000   0.000000   0.000000
